<svg width="27" height="21" viewBox="0 0 27 21" fill="none" xmlns="http://www.w3.org/2000/svg">
<path d="M20.25 0H6.75C4.96038 0.00198528 3.2446 0.740121 1.97914 2.05245C0.713688 3.36477 0.00191438 5.14409 0 7V19C0 19.5304 0.203188 20.0391 0.564865 20.4142C0.926543 20.7893 1.41708 21 1.92857 21H25.0714C25.5829 21 26.0735 20.7893 26.4351 20.4142C26.7968 20.0391 27 19.5304 27 19V7C26.9981 5.14409 26.2863 3.36477 25.0209 2.05245C23.7554 0.740121 22.0396 0.00198528 20.25 0ZM25.0714 7V8H21.2143V2.1C22.3026 2.33205 23.2805 2.94613 23.9831 3.8387C24.6857 4.73128 25.0701 5.84778 25.0714 7ZM14.4643 12H12.5357V8H14.4643V12ZM11.5714 14H15.4286C15.6843 14 15.9296 13.8946 16.1104 13.7071C16.2913 13.5196 16.3929 13.2652 16.3929 13V10H19.2857V19H7.71429V10H10.6071V13C10.6071 13.2652 10.7087 13.5196 10.8896 13.7071C11.0704 13.8946 11.3157 14 11.5714 14ZM16.3929 8V7C16.3929 6.73478 16.2913 6.48043 16.1104 6.29289C15.9296 6.10536 15.6843 6 15.4286 6H11.5714C11.3157 6 11.0704 6.10536 10.8896 6.29289C10.7087 6.48043 10.6071 6.73478 10.6071 7V8H7.71429V2H19.2857V8H16.3929ZM5.78571 2.1V8H1.92857V7C1.92993 5.84778 2.31431 4.73128 3.01692 3.8387C3.71954 2.94613 4.69741 2.33205 5.78571 2.1ZM1.92857 10H5.78571V19H1.92857V10ZM25.0714 19H21.2143V10H25.0714V19Z" fill="white"/>
</svg>
