<svg width="25" height="22" viewBox="0 0 25 22" fill="none" xmlns="http://www.w3.org/2000/svg">
<path d="M21.032 2.4H23.3V0H1.7V2.4H3.968C1.74776 4.63194 0.50098 7.65182 0.5 10.8C0.5 15.564 3.272 19.668 7.292 21.6H17.708C19.7438 20.624 21.4618 19.092 22.6637 17.1809C23.8656 15.2698 24.5022 13.0576 24.5 10.8C24.5 7.524 23.168 4.56 21.032 2.4ZM5.684 4.092L7.34 2.4H17.66L19.316 4.092C19.9685 4.74409 20.5223 5.48793 20.96 6.3C19.6416 6.08558 18.3897 5.5725 17.3 4.8C14.372 6.852 10.628 6.852 7.7 4.8C6.572 5.592 5.3 6.108 4.04 6.3C4.472 5.496 5.024 4.752 5.684 4.092ZM17.12 19.2H7.88C6.36845 18.3804 5.10722 17.1666 4.23035 15.6875C3.35348 14.2084 2.89374 12.5194 2.9 10.8C2.9 10.116 2.984 9.432 3.128 8.784C4.72251 8.74082 6.28617 8.33452 7.7 7.596C10.7 9.156 14.3 9.156 17.3 7.596C18.74 8.34 20.3 8.748 21.872 8.784C22.016 9.432 22.1 10.116 22.1 10.8C22.1063 12.5194 21.6465 14.2084 20.7696 15.6875C19.8928 17.1666 18.6315 18.3804 17.12 19.2ZM18.5 13.8C18.5 15.456 16.484 16.8 14 16.8C12.608 16.8 11.372 16.368 10.496 15.792C9.704 16.8 8.096 16.8 6.5 16.8C7.82 16.8 8.3 15.456 8.3 13.8C8.3 12.144 7.82 10.8 6.5 10.8C8.096 10.8 9.704 10.8 10.544 11.892C11.372 11.232 12.608 10.8 14 10.8C16.484 10.8 18.5 12.144 18.5 13.8Z" fill="white"/>
</svg>
