<svg width="25" height="20" viewBox="0 0 25 20" fill="none" xmlns="http://www.w3.org/2000/svg">
<path d="M5.9 19.7996H1.7C1.04 19.7996 0.5 19.3196 0.5 18.7329V8.06628C0.5 7.47961 1.04 6.99961 1.7 6.99961H5.9C6.56 6.99961 7.1 7.47961 7.1 8.06628V18.7329C7.1 19.3196 6.56 19.7996 5.9 19.7996ZM14.6 0.599609H10.4C9.74 0.599609 9.2 1.07961 9.2 1.66628V18.7329C9.2 19.3196 9.74 19.7996 10.4 19.7996H14.6C15.26 19.7996 15.8 19.3196 15.8 18.7329V1.66628C15.8 1.07961 15.26 0.599609 14.6 0.599609ZM23.3 9.13294H19.1C18.44 9.13294 17.9 9.61294 17.9 10.1996V18.7329C17.9 19.3196 18.44 19.7996 19.1 19.7996H23.3C23.96 19.7996 24.5 19.3196 24.5 18.7329V10.1996C24.5 9.61294 23.96 9.13294 23.3 9.13294Z" fill="white"/>
</svg>
