<svg width="128" height="128" viewBox="0 0 128 128" fill="none" xmlns="http://www.w3.org/2000/svg">
<circle cx="64" cy="64" r="64" fill="#41616C"/>
<path d="M89.2588 37.7598C82.7898 38.8379 75.3028 43.5347 67.9986 49.7519C61.5401 55.2494 55.2776 61.969 50.3224 68.5996L52.633 70.4707C54.27 68.2761 56.0646 66.0637 57.9639 63.8877L56.9937 62.8712L58.6049 61.333C59.219 62.0112 59.8709 62.6477 60.534 63.3106C59.1087 68.1086 55.683 73.1784 51.5396 77.2359C52.1354 77.7024 52.6886 78.3516 53.002 78.9345C57.46 74.6223 61.1322 69.2209 62.6956 63.8262C68.1213 61.7341 70.9597 57.7699 73.7882 52.5804C81.1491 51.5044 86.4793 47.5453 89.502 43.9198C90.1366 45.6263 90.7595 47.3348 91.107 49.0057C91.5856 51.3053 91.5721 53.4711 90.4899 55.604C88.5314 59.4634 84.8283 61.298 81.9449 63.2312C80.5033 64.1977 79.1869 65.2105 78.6548 66.7878C78.1227 68.3651 78.6132 70.2011 80.0945 72.2687C81.6739 74.473 83.9835 76.0756 85.5426 77.6592C85.9586 78.0818 86.315 78.497 86.6017 78.9047C87.5243 78.7186 88.4829 78.8606 89.312 79.3061C89.2959 79.2599 89.2805 79.2135 89.2633 79.1679C88.8137 77.9791 88.0171 76.998 87.1298 76.0966C85.3549 74.2939 83.1624 72.7262 81.9051 70.9712C80.6327 69.195 80.5197 68.2284 80.7656 67.4995C81.0115 66.7706 81.8546 65.9732 83.1853 65.081C85.8464 63.2968 90.1385 61.2188 92.4764 56.6116C93.8368 53.9303 93.8278 51.1461 93.2882 48.552C92.4034 44.5032 90.8647 41.1975 89.2589 37.7598H89.2588ZM87.6751 39.3898L88.6237 41.4267C86.2024 44.8115 81.0369 49.2232 73.6351 50.3617L73.1175 49.4215C77.7661 45.8263 82.3765 43.0521 86.3506 41.6132L85.7447 40.2433L87.6751 39.3898ZM70.5518 49.6192C70.987 50.262 71.4274 50.9675 71.7826 51.6157C69.0855 56.5635 66.7489 59.8401 62.0636 61.6902L60.9573 60.5838C63.7268 57.6392 66.9023 54.5739 69.8653 52.0309L69.176 51.0751L70.5518 49.6192ZM48.7653 70.205L47.6751 71.5514L50.5605 73.8878L51.6504 72.5412L48.7653 70.205ZM46.273 73.2827L34.5586 87.7501C34.5627 87.7881 34.5809 87.8904 34.6611 88.0476C34.8337 88.3859 35.2423 88.8723 35.7231 89.2618C36.2038 89.6512 36.7651 89.9498 37.1317 90.0482C37.3023 90.094 37.406 90.0903 37.4441 90.0862L43.5969 82.4876C43.2486 81.0085 43.5586 79.3886 44.5826 78.1242C45.6064 76.8597 47.1264 76.219 48.6457 76.2522L49.1584 75.6192L46.273 73.2827ZM48.4993 78.4636C47.6815 78.4703 46.8749 78.8324 46.3139 79.5254C45.3164 80.7573 45.5027 82.5313 46.7346 83.5287C47.9665 84.5261 49.7405 84.3395 50.7379 83.1076C50.7961 83.0358 50.8498 82.9618 50.9 82.8864L53.0702 83.2862L52.1963 88.0325L54.3867 88.4359L55.6644 81.4988L51.3096 80.6969C51.1748 80.0934 50.8406 79.5287 50.3168 79.1045C49.7779 78.6682 49.1352 78.4584 48.4993 78.4636ZM87.3992 81.0522C86.361 81.0522 85.543 81.8702 85.543 82.9085C85.543 83.547 85.8532 84.1017 86.3331 84.4346C86.2731 84.9842 86.1669 85.6599 85.9703 86.297C85.543 87.5423 84.9561 88.4205 83.8056 88.1763C82.9349 87.8424 82.8449 86.941 82.8936 86.1745L84.4573 86.1481L81.1539 81.0966C80.9188 81.9456 80.4745 85.3663 80.7066 87.2851C80.7839 87.8512 80.9561 88.4885 81.3693 89.0753C81.7823 89.6621 82.4686 90.1603 83.3204 90.3504C84.6109 90.6385 85.8325 90.2514 86.6159 89.5275C87.3992 88.8035 87.8191 87.8601 88.0989 86.9541C88.3955 85.9933 88.5268 85.0381 88.5865 84.3445C88.9973 84.0063 89.2556 83.4922 89.2556 82.9086C89.2556 81.8703 88.4376 81.0523 87.3993 81.0523L87.3992 81.0522Z" fill="white"/>
</svg>
