<svg width="128" height="128" viewBox="0 0 128 128" fill="none" xmlns="http://www.w3.org/2000/svg">
<circle cx="64" cy="64" r="64" fill="#41616C"/>
<path d="M84.4498 24C79.193 24.8594 73.109 28.6036 67.1736 33.5597C61.9253 37.9422 56.8364 43.2988 52.8098 48.5846L54.6874 50.0762C56.0176 48.3267 57.476 46.5631 59.0194 44.8284L58.231 44.0181L59.5403 42.7919C60.0392 43.3325 60.569 43.8399 61.1078 44.3683C59.9496 48.1931 57.1658 52.2346 53.7989 55.4692C54.2831 55.8411 54.7326 56.3586 54.9873 56.8232C58.6099 53.3857 61.5939 49.0798 62.8644 44.7794C67.2733 43.1116 69.5798 39.9515 71.8783 35.8146C77.8598 34.9568 82.1911 31.8007 84.6474 28.9106C85.1631 30.271 85.6693 31.6329 85.9517 32.9649C86.3406 34.7981 86.3296 36.5246 85.4502 38.2249C83.8587 41.3015 80.8496 42.764 78.5065 44.3051C77.335 45.0755 76.2653 45.8829 75.8329 47.1403C75.4005 48.3976 75.7991 49.8612 77.0028 51.5095C78.2863 53.2667 80.163 54.5442 81.43 55.8066C81.7681 56.1435 82.0577 56.4745 82.2906 56.7994C83.0403 56.6511 83.8193 56.7643 84.4931 57.1195C84.48 57.0827 84.4674 57.0457 84.4534 57.0093C84.0881 56.0616 83.4408 55.2795 82.7198 54.561C81.2775 53.1239 79.4958 51.8742 78.4741 50.4751C77.4402 49.0592 77.3484 48.2886 77.5482 47.7076C77.748 47.1265 78.4331 46.4908 79.5144 45.7797C81.6769 44.3573 85.1647 42.7008 87.0645 39.0281C88.17 36.8907 88.1626 34.6711 87.7242 32.6032C87.0052 29.3756 85.7547 26.7405 84.4498 24ZM83.1629 25.2994L83.9338 26.9232C81.9662 29.6215 77.7686 33.1383 71.7539 34.0459L71.3333 33.2964C75.1108 30.4304 78.8572 28.2189 82.0866 27.0719L81.5942 25.9798L83.1629 25.2994ZM69.2483 33.454C69.602 33.9664 69.9599 34.5288 70.2485 35.0455C68.0568 38.9897 66.1581 41.6018 62.3508 43.0766L61.4518 42.1947C63.7023 39.8473 66.2827 37.4037 68.6905 35.3765L68.1304 34.6146L69.2483 33.454ZM51.5445 49.8644L50.6586 50.9377L53.0032 52.8002L53.889 51.7267L51.5445 49.8644ZM49.5192 52.3178L40 63.8507C40.0033 63.881 40.0181 63.9626 40.0833 64.0879C40.2235 64.3576 40.5556 64.7454 40.9463 65.0558C41.3369 65.3663 41.793 65.6043 42.0909 65.6828C42.2295 65.7193 42.3138 65.7163 42.3448 65.713L47.3446 59.6556C47.0615 58.4766 47.3134 57.1853 48.1456 56.1773C48.9775 55.1693 50.2127 54.6585 51.4473 54.685L51.8639 54.1804L49.5192 52.3178ZM51.3283 56.4479C50.6638 56.4532 50.0084 56.7418 49.5524 57.2943C48.7419 58.2763 48.8932 59.6905 49.8943 60.4856C50.8954 61.2807 52.3369 61.1319 53.1474 60.1499C53.1947 60.0927 53.2384 60.0337 53.2792 59.9736L55.0427 60.2922L54.3325 64.0758L56.1125 64.3974L57.1507 58.8674L53.612 58.2282C53.5024 57.7471 53.2309 57.2969 52.8052 56.9588C52.3673 56.6109 51.8451 56.4437 51.3283 56.4479ZM82.9387 58.5114C82.095 58.5114 81.4303 59.1635 81.4303 59.9912C81.4303 60.5002 81.6824 60.9423 82.0724 61.2077C82.0236 61.6459 81.9373 62.1845 81.7775 62.6924C81.4303 63.6851 80.9535 64.3852 80.0185 64.1905C79.311 63.9243 79.2378 63.2058 79.2774 62.5947L80.5481 62.5737L77.8637 58.5468C77.6727 59.2236 77.3117 61.9504 77.5002 63.4801C77.5631 63.9313 77.7029 64.4394 78.0387 64.9072C78.3744 65.375 78.9321 65.7721 79.6242 65.9237C80.6729 66.1533 81.6656 65.8447 82.3022 65.2676C82.9387 64.6905 83.2799 63.9384 83.5073 63.2162C83.7483 62.4503 83.855 61.6888 83.9035 61.1359C84.2373 60.8663 84.4472 60.4565 84.4472 59.9913C84.4472 59.1636 83.7824 58.5114 82.9387 58.5114Z" fill="white"/>
<path d="M45.314 89.4058H46.9199C46.8877 89.9321 46.7427 90.3994 46.4849 90.8076C46.2306 91.2158 45.8743 91.5345 45.416 91.7637C44.9613 91.9928 44.4134 92.1074 43.7725 92.1074C43.2712 92.1074 42.8218 92.0215 42.4243 91.8496C42.0269 91.6742 41.6867 91.4235 41.4038 91.0977C41.1245 90.7718 40.9115 90.3779 40.7646 89.916C40.6178 89.4541 40.5444 88.9367 40.5444 88.3638V87.8213C40.5444 87.2484 40.6196 86.731 40.77 86.269C40.924 85.8035 41.1424 85.4079 41.4253 85.082C41.7118 84.7562 42.0537 84.5055 42.4512 84.3301C42.8486 84.1546 43.2926 84.0669 43.7832 84.0669C44.4349 84.0669 44.9845 84.1851 45.4321 84.4214C45.8833 84.6577 46.2324 84.9836 46.4795 85.3989C46.7301 85.8143 46.8805 86.2869 46.9307 86.8169H45.3193C45.3014 86.5018 45.2388 86.235 45.1313 86.0166C45.0239 85.7946 44.861 85.6281 44.6426 85.5171C44.4277 85.4025 44.1413 85.3452 43.7832 85.3452C43.5146 85.3452 43.2801 85.3953 43.0796 85.4956C42.8791 85.5959 42.7108 85.748 42.5747 85.9521C42.4386 86.1562 42.3366 86.4141 42.2686 86.7256C42.2041 87.0335 42.1719 87.3952 42.1719 87.8105V88.3638C42.1719 88.7684 42.2023 89.1247 42.2632 89.4326C42.3241 89.737 42.4172 89.9948 42.5425 90.2061C42.6714 90.4137 42.8361 90.5713 43.0366 90.6787C43.2407 90.7826 43.486 90.8345 43.7725 90.8345C44.109 90.8345 44.3866 90.7808 44.605 90.6733C44.8234 90.5659 44.9899 90.4066 45.1045 90.1953C45.2227 89.984 45.2925 89.7209 45.314 89.4058ZM49.3906 83.75V92H47.8438V83.75H49.3906ZM49.1704 88.8901H48.7461C48.7497 88.4855 48.8034 88.1131 48.9072 87.7729C49.0111 87.4292 49.1597 87.132 49.353 86.8813C49.5464 86.6271 49.7773 86.4302 50.0459 86.2905C50.318 86.1509 50.6188 86.0811 50.9482 86.0811C51.2347 86.0811 51.4943 86.1222 51.7271 86.2046C51.9634 86.2834 52.1657 86.4123 52.334 86.5913C52.5059 86.7668 52.6383 86.9977 52.7314 87.2842C52.8245 87.5706 52.8711 87.918 52.8711 88.3262V92H51.3135V88.3154C51.3135 88.0576 51.2759 87.8553 51.2007 87.7085C51.1291 87.5581 51.0234 87.4525 50.8838 87.3916C50.7477 87.3271 50.5794 87.2949 50.3789 87.2949C50.1569 87.2949 49.9671 87.3361 49.8096 87.4185C49.6556 87.5008 49.5321 87.6154 49.439 87.7622C49.3459 87.9054 49.2778 88.0737 49.2349 88.2671C49.1919 88.4604 49.1704 88.6681 49.1704 88.8901ZM56.7222 92.1074C56.271 92.1074 55.8664 92.0358 55.5083 91.8926C55.1502 91.7458 54.8459 91.5435 54.5952 91.2856C54.3481 91.0278 54.1584 90.7288 54.0259 90.3887C53.8934 90.0449 53.8271 89.6797 53.8271 89.293V89.0781C53.8271 88.6377 53.8898 88.2349 54.0151 87.8696C54.1405 87.5044 54.3195 87.1875 54.5522 86.9189C54.7886 86.6504 55.075 86.4445 55.4116 86.3013C55.7482 86.1545 56.1278 86.0811 56.5503 86.0811C56.9621 86.0811 57.3273 86.1491 57.646 86.2852C57.9647 86.4212 58.2314 86.6146 58.4463 86.8652C58.6647 87.1159 58.8294 87.4167 58.9404 87.7676C59.0514 88.1149 59.1069 88.5016 59.1069 88.9277V89.5723H54.4878V88.541H57.5869V88.4229C57.5869 88.208 57.5475 88.0164 57.4688 87.8481C57.3936 87.6763 57.279 87.5402 57.125 87.4399C56.971 87.3397 56.7741 87.2896 56.5342 87.2896C56.3301 87.2896 56.1546 87.3343 56.0078 87.4238C55.861 87.5133 55.741 87.6387 55.6479 87.7998C55.5584 87.9609 55.4904 88.1507 55.4438 88.3691C55.4009 88.584 55.3794 88.8203 55.3794 89.0781V89.293C55.3794 89.5257 55.4116 89.7406 55.4761 89.9375C55.5441 90.1344 55.639 90.3045 55.7607 90.4478C55.8861 90.591 56.0365 90.702 56.2119 90.7808C56.391 90.8595 56.5933 90.8989 56.8188 90.8989C57.0981 90.8989 57.3577 90.8452 57.5977 90.7378C57.8411 90.6268 58.0506 90.4603 58.2261 90.2383L58.978 91.0547C58.8563 91.2301 58.6898 91.3984 58.4785 91.5596C58.2708 91.7207 58.0202 91.8532 57.7266 91.957C57.4329 92.0573 57.0981 92.1074 56.7222 92.1074ZM62.3887 90.8989C62.5785 90.8989 62.7467 90.8631 62.8936 90.7915C63.0404 90.7163 63.1549 90.6125 63.2373 90.48C63.3232 90.3439 63.368 90.1846 63.3716 90.002H64.8271C64.8236 90.4102 64.7144 90.7736 64.4995 91.0923C64.2847 91.4074 63.9964 91.6562 63.6348 91.8389C63.2731 92.0179 62.8685 92.1074 62.4209 92.1074C61.9697 92.1074 61.5758 92.0322 61.2393 91.8818C60.9062 91.7314 60.6287 91.5238 60.4067 91.2588C60.1847 90.9902 60.0182 90.6787 59.9072 90.3242C59.7962 89.9661 59.7407 89.583 59.7407 89.1748V89.019C59.7407 88.6073 59.7962 88.2241 59.9072 87.8696C60.0182 87.5116 60.1847 87.2 60.4067 86.9351C60.6287 86.6665 60.9062 86.457 61.2393 86.3066C61.5723 86.1562 61.9626 86.0811 62.4102 86.0811C62.8864 86.0811 63.3035 86.1724 63.6616 86.355C64.0233 86.5376 64.3062 86.799 64.5103 87.1392C64.7179 87.4757 64.8236 87.875 64.8271 88.3369H63.3716C63.368 88.1436 63.3268 87.9681 63.248 87.8105C63.1729 87.653 63.0618 87.5277 62.915 87.4346C62.7718 87.3379 62.5946 87.2896 62.3833 87.2896C62.1577 87.2896 61.9733 87.3379 61.8301 87.4346C61.6868 87.5277 61.5758 87.6566 61.4971 87.8213C61.4183 87.9824 61.3628 88.1668 61.3306 88.3745C61.3019 88.5786 61.2876 88.7935 61.2876 89.019V89.1748C61.2876 89.4004 61.3019 89.617 61.3306 89.8247C61.3592 90.0324 61.4129 90.2168 61.4917 90.3779C61.5741 90.5391 61.6868 90.6662 61.8301 90.7593C61.9733 90.8524 62.1595 90.8989 62.3887 90.8989ZM67.271 83.7446V92H65.7241V83.7446H67.271ZM70.9341 86.1885L68.4097 89.0674L67.0562 90.437L66.4922 89.3198L67.5664 87.9556L69.0757 86.1885H70.9341ZM69.3281 92L67.6094 89.3145L68.6782 88.3799L71.1113 92H69.3281ZM76.3105 92H74.7529V85.6729C74.7529 85.2324 74.8389 84.8618 75.0107 84.561C75.1862 84.2567 75.4315 84.0275 75.7466 83.8735C76.0653 83.716 76.443 83.6372 76.8799 83.6372C77.0231 83.6372 77.161 83.6479 77.2935 83.6694C77.4259 83.6873 77.5549 83.7106 77.6802 83.7393L77.6641 84.9048C77.596 84.8869 77.5244 84.8743 77.4492 84.8672C77.374 84.86 77.2863 84.8564 77.186 84.8564C76.9998 84.8564 76.8405 84.8887 76.708 84.9531C76.5791 85.014 76.4806 85.1053 76.4126 85.2271C76.3446 85.3488 76.3105 85.4974 76.3105 85.6729V92ZM77.4707 86.1885V87.2842H73.8882V86.1885H77.4707ZM78.0347 89.1533V89.0405C78.0347 88.6144 78.0955 88.2223 78.2173 87.8643C78.339 87.5026 78.5163 87.1893 78.749 86.9243C78.9818 86.6593 79.2682 86.4535 79.6084 86.3066C79.9486 86.1562 80.3389 86.0811 80.7793 86.0811C81.2197 86.0811 81.6118 86.1562 81.9556 86.3066C82.2993 86.4535 82.5876 86.6593 82.8203 86.9243C83.0566 87.1893 83.2357 87.5026 83.3574 87.8643C83.4792 88.2223 83.54 88.6144 83.54 89.0405V89.1533C83.54 89.5758 83.4792 89.9679 83.3574 90.3296C83.2357 90.6877 83.0566 91.001 82.8203 91.2695C82.5876 91.5345 82.3011 91.7404 81.9609 91.8872C81.6208 92.034 81.2305 92.1074 80.79 92.1074C80.3496 92.1074 79.9575 92.034 79.6138 91.8872C79.2736 91.7404 78.9854 91.5345 78.749 91.2695C78.5163 91.001 78.339 90.6877 78.2173 90.3296C78.0955 89.9679 78.0347 89.5758 78.0347 89.1533ZM79.5815 89.0405V89.1533C79.5815 89.3968 79.603 89.6242 79.646 89.8354C79.689 90.0467 79.757 90.2329 79.8501 90.394C79.9468 90.5516 80.0721 90.6751 80.2261 90.7646C80.38 90.8542 80.568 90.8989 80.79 90.8989C81.0049 90.8989 81.1893 90.8542 81.3433 90.7646C81.4972 90.6751 81.6208 90.5516 81.7139 90.394C81.807 90.2329 81.875 90.0467 81.918 89.8354C81.9645 89.6242 81.9878 89.3968 81.9878 89.1533V89.0405C81.9878 88.8042 81.9645 88.5822 81.918 88.3745C81.875 88.1632 81.8052 87.9771 81.7085 87.8159C81.6154 87.6512 81.4919 87.5223 81.3379 87.4292C81.1839 87.3361 80.9977 87.2896 80.7793 87.2896C80.5609 87.2896 80.3747 87.3361 80.2207 87.4292C80.0703 87.5223 79.9468 87.6512 79.8501 87.8159C79.757 87.9771 79.689 88.1632 79.646 88.3745C79.603 88.5822 79.5815 88.8042 79.5815 89.0405ZM86.0376 87.4561V92H84.4907V86.1885H85.9463L86.0376 87.4561ZM87.7886 86.1509L87.7617 87.585C87.6865 87.5742 87.5952 87.5653 87.4878 87.5581C87.384 87.5474 87.2891 87.542 87.2031 87.542C86.9847 87.542 86.7949 87.5706 86.6338 87.6279C86.4762 87.6816 86.3438 87.7622 86.2363 87.8696C86.1325 87.9771 86.0537 88.1077 86 88.2617C85.9499 88.4157 85.9212 88.5911 85.9141 88.7881L85.6025 88.6914C85.6025 88.3154 85.6401 87.9699 85.7153 87.6548C85.7905 87.3361 85.8997 87.0586 86.043 86.8223C86.1898 86.5859 86.3688 86.4033 86.5801 86.2744C86.7913 86.1455 87.033 86.0811 87.3052 86.0811C87.3911 86.0811 87.4788 86.0882 87.5684 86.1025C87.6579 86.1133 87.7313 86.1294 87.7886 86.1509ZM44.9272 100.306V107.234H43.3804V99.1885H44.8145L44.9272 100.306ZM48.6064 102.03V102.143C48.6064 102.565 48.5563 102.957 48.4561 103.319C48.3594 103.681 48.2161 103.996 48.0264 104.264C47.8366 104.529 47.6003 104.737 47.3174 104.887C47.0381 105.034 46.7158 105.107 46.3506 105.107C45.9961 105.107 45.6882 105.036 45.4268 104.893C45.1654 104.749 44.9451 104.549 44.7661 104.291C44.5907 104.03 44.4492 103.727 44.3418 103.383C44.2344 103.04 44.152 102.671 44.0947 102.277V101.981C44.152 101.559 44.2344 101.172 44.3418 100.821C44.4492 100.467 44.5907 100.161 44.7661 99.9028C44.9451 99.6414 45.1636 99.4391 45.4214 99.2959C45.6828 99.1527 45.9889 99.0811 46.3398 99.0811C46.7087 99.0811 47.0327 99.1509 47.312 99.2905C47.5949 99.4302 47.8312 99.6307 48.021 99.8921C48.2144 100.153 48.3594 100.465 48.4561 100.827C48.5563 101.188 48.6064 101.589 48.6064 102.03ZM47.0542 102.143V102.03C47.0542 101.783 47.0327 101.555 46.9897 101.348C46.9504 101.136 46.8859 100.952 46.7964 100.794C46.7104 100.637 46.5959 100.515 46.4526 100.429C46.313 100.34 46.1429 100.295 45.9424 100.295C45.7311 100.295 45.5503 100.329 45.3999 100.397C45.2531 100.465 45.1331 100.563 45.04 100.692C44.9469 100.821 44.8771 100.975 44.8306 101.154C44.784 101.333 44.7554 101.536 44.7446 101.761V102.508C44.7625 102.773 44.8127 103.011 44.895 103.222C44.9774 103.43 45.1045 103.595 45.2764 103.716C45.4482 103.838 45.6738 103.899 45.9531 103.899C46.1572 103.899 46.3291 103.854 46.4688 103.765C46.6084 103.672 46.7212 103.544 46.8071 103.383C46.8966 103.222 46.9593 103.036 46.9951 102.825C47.0345 102.613 47.0542 102.386 47.0542 102.143ZM51.0771 96.75V105H49.5303V96.75H51.0771ZM50.8569 101.89H50.4326C50.4362 101.486 50.4899 101.113 50.5938 100.773C50.6976 100.429 50.8462 100.132 51.0396 99.8813C51.2329 99.6271 51.4639 99.4302 51.7324 99.2905C52.0046 99.1509 52.3053 99.0811 52.6348 99.0811C52.9212 99.0811 53.1808 99.1222 53.4136 99.2046C53.6499 99.2834 53.8522 99.4123 54.0205 99.5913C54.1924 99.7668 54.3249 99.9977 54.418 100.284C54.5111 100.571 54.5576 100.918 54.5576 101.326V105H53V101.315C53 101.058 52.9624 100.855 52.8872 100.708C52.8156 100.558 52.71 100.452 52.5703 100.392C52.4342 100.327 52.266 100.295 52.0654 100.295C51.8434 100.295 51.6536 100.336 51.4961 100.418C51.3421 100.501 51.2186 100.615 51.1255 100.762C51.0324 100.905 50.9644 101.074 50.9214 101.267C50.8784 101.46 50.8569 101.668 50.8569 101.89ZM57.3667 99.1885V105H55.8145V99.1885H57.3667ZM55.7178 97.6738C55.7178 97.4482 55.7965 97.262 55.9541 97.1152C56.1117 96.9684 56.3229 96.895 56.5879 96.895C56.8493 96.895 57.0588 96.9684 57.2163 97.1152C57.3774 97.262 57.458 97.4482 57.458 97.6738C57.458 97.8994 57.3774 98.0856 57.2163 98.2324C57.0588 98.3792 56.8493 98.4526 56.5879 98.4526C56.3229 98.4526 56.1117 98.3792 55.9541 98.2324C55.7965 98.0856 55.7178 97.8994 55.7178 97.6738ZM61.7871 103.394C61.7871 103.283 61.7549 103.183 61.6904 103.093C61.626 103.004 61.506 102.921 61.3306 102.846C61.1587 102.767 60.9098 102.696 60.584 102.631C60.2904 102.567 60.0164 102.486 59.7622 102.39C59.5116 102.289 59.2931 102.169 59.1069 102.03C58.9243 101.89 58.7811 101.725 58.6772 101.536C58.5734 101.342 58.5215 101.122 58.5215 100.875C58.5215 100.632 58.5734 100.402 58.6772 100.188C58.7847 99.9727 58.9368 99.7829 59.1338 99.6182C59.3343 99.4499 59.5778 99.3192 59.8643 99.2261C60.1543 99.1294 60.4801 99.0811 60.8418 99.0811C61.3467 99.0811 61.7799 99.1616 62.1416 99.3228C62.5068 99.4839 62.7861 99.7059 62.9795 99.9888C63.1764 100.268 63.2749 100.587 63.2749 100.945H61.728C61.728 100.794 61.6958 100.66 61.6313 100.542C61.5705 100.42 61.4738 100.325 61.3413 100.257C61.2124 100.186 61.0441 100.15 60.8364 100.15C60.6646 100.15 60.516 100.18 60.3906 100.241C60.2653 100.299 60.1686 100.377 60.1006 100.478C60.0361 100.574 60.0039 100.682 60.0039 100.8C60.0039 100.889 60.0218 100.97 60.0576 101.042C60.097 101.11 60.1597 101.172 60.2456 101.229C60.3315 101.287 60.4425 101.34 60.5786 101.391C60.7183 101.437 60.8901 101.48 61.0942 101.52C61.5132 101.605 61.8874 101.718 62.2168 101.858C62.5462 101.994 62.8076 102.18 63.001 102.417C63.1943 102.649 63.291 102.955 63.291 103.335C63.291 103.593 63.2337 103.829 63.1191 104.044C63.0046 104.259 62.8398 104.447 62.625 104.608C62.4102 104.765 62.1523 104.889 61.8516 104.979C61.5544 105.064 61.2196 105.107 60.8472 105.107C60.3065 105.107 59.8481 105.011 59.4722 104.817C59.0998 104.624 58.8169 104.379 58.6235 104.082C58.4338 103.781 58.3389 103.473 58.3389 103.158H59.8052C59.8123 103.369 59.866 103.539 59.9663 103.668C60.0701 103.797 60.2008 103.89 60.3584 103.947C60.5195 104.005 60.6932 104.033 60.8794 104.033C61.0799 104.033 61.2464 104.006 61.3789 103.953C61.5114 103.895 61.6117 103.82 61.6797 103.727C61.7513 103.63 61.7871 103.519 61.7871 103.394ZM65.8047 96.75V105H64.2578V96.75H65.8047ZM65.5845 101.89H65.1602C65.1637 101.486 65.2174 101.113 65.3213 100.773C65.4251 100.429 65.5737 100.132 65.7671 99.8813C65.9604 99.6271 66.1914 99.4302 66.46 99.2905C66.7321 99.1509 67.0329 99.0811 67.3623 99.0811C67.6488 99.0811 67.9084 99.1222 68.1411 99.2046C68.3774 99.2834 68.5798 99.4123 68.748 99.5913C68.9199 99.7668 69.0524 99.9977 69.1455 100.284C69.2386 100.571 69.2852 100.918 69.2852 101.326V105H67.7275V101.315C67.7275 101.058 67.6899 100.855 67.6147 100.708C67.5431 100.558 67.4375 100.452 67.2979 100.392C67.1618 100.327 66.9935 100.295 66.793 100.295C66.571 100.295 66.3812 100.336 66.2236 100.418C66.0697 100.501 65.9461 100.615 65.853 100.762C65.7599 100.905 65.6919 101.074 65.6489 101.267C65.606 101.46 65.5845 101.668 65.5845 101.89ZM72.0942 99.1885V105H70.542V99.1885H72.0942ZM70.4453 97.6738C70.4453 97.4482 70.5241 97.262 70.6816 97.1152C70.8392 96.9684 71.0505 96.895 71.3154 96.895C71.5768 96.895 71.7863 96.9684 71.9438 97.1152C72.105 97.262 72.1855 97.4482 72.1855 97.6738C72.1855 97.8994 72.105 98.0856 71.9438 98.2324C71.7863 98.3792 71.5768 98.4526 71.3154 98.4526C71.0505 98.4526 70.8392 98.3792 70.6816 98.2324C70.5241 98.0856 70.4453 97.8994 70.4453 97.6738ZM74.8872 100.429V105H73.3403V99.1885H74.7905L74.8872 100.429ZM74.6616 101.89H74.2427C74.2427 101.46 74.2982 101.074 74.4092 100.73C74.5202 100.383 74.6759 100.087 74.8765 99.8438C75.077 99.5967 75.3151 99.4087 75.5908 99.2798C75.8701 99.1473 76.1816 99.0811 76.5254 99.0811C76.7975 99.0811 77.0464 99.1204 77.272 99.1992C77.4976 99.278 77.6909 99.4033 77.8521 99.5752C78.0168 99.7471 78.1421 99.9744 78.228 100.257C78.3175 100.54 78.3623 100.886 78.3623 101.294V105H76.8047V101.289C76.8047 101.031 76.7689 100.83 76.6973 100.687C76.6257 100.544 76.52 100.444 76.3804 100.386C76.2443 100.325 76.076 100.295 75.8755 100.295C75.6678 100.295 75.487 100.336 75.333 100.418C75.1826 100.501 75.0573 100.615 74.957 100.762C74.8604 100.905 74.7869 101.074 74.7368 101.267C74.6867 101.46 74.6616 101.668 74.6616 101.89ZM83.2178 99.1885H84.6196V104.807C84.6196 105.337 84.5015 105.786 84.2651 106.155C84.0324 106.527 83.7065 106.808 83.2876 106.998C82.8687 107.191 82.3817 107.288 81.8267 107.288C81.5832 107.288 81.3254 107.256 81.0532 107.191C80.7847 107.127 80.5269 107.027 80.2798 106.891C80.0363 106.755 79.8322 106.583 79.6675 106.375L80.3496 105.462C80.5286 105.67 80.7363 105.831 80.9727 105.945C81.209 106.063 81.4704 106.123 81.7568 106.123C82.0361 106.123 82.2725 106.071 82.4658 105.967C82.6592 105.867 82.8078 105.718 82.9116 105.521C83.0155 105.328 83.0674 105.093 83.0674 104.817V100.531L83.2178 99.1885ZM79.3076 102.164V102.051C79.3076 101.607 79.3613 101.204 79.4688 100.843C79.5798 100.478 79.7355 100.164 79.936 99.9028C80.1401 99.6414 80.3872 99.4391 80.6772 99.2959C80.9673 99.1527 81.2949 99.0811 81.6602 99.0811C82.0469 99.0811 82.3709 99.1527 82.6323 99.2959C82.8937 99.4391 83.1086 99.6432 83.2769 99.9082C83.4451 100.17 83.5758 100.479 83.6689 100.837C83.7656 101.192 83.8408 101.58 83.8945 102.003V102.25C83.8408 102.655 83.7603 103.031 83.6528 103.378C83.5454 103.725 83.404 104.03 83.2285 104.291C83.0531 104.549 82.8346 104.749 82.5732 104.893C82.3154 105.036 82.0075 105.107 81.6494 105.107C81.2913 105.107 80.9673 105.034 80.6772 104.887C80.3908 104.74 80.1455 104.535 79.9414 104.27C79.7373 104.005 79.5798 103.693 79.4688 103.335C79.3613 102.977 79.3076 102.587 79.3076 102.164ZM80.8545 102.051V102.164C80.8545 102.404 80.8778 102.628 80.9243 102.835C80.9709 103.043 81.0425 103.228 81.1392 103.389C81.2394 103.546 81.363 103.67 81.5098 103.759C81.6602 103.845 81.8374 103.888 82.0415 103.888C82.3244 103.888 82.5553 103.829 82.7344 103.711C82.9134 103.589 83.0477 103.423 83.1372 103.211C83.2267 103 83.2786 102.757 83.293 102.481V101.777C83.2858 101.552 83.2554 101.349 83.2017 101.17C83.1479 100.988 83.0728 100.832 82.9761 100.703C82.8794 100.574 82.7541 100.474 82.6001 100.402C82.4461 100.331 82.2635 100.295 82.0522 100.295C81.8481 100.295 81.6709 100.341 81.5205 100.435C81.3737 100.524 81.2502 100.648 81.1499 100.805C81.0532 100.963 80.9798 101.149 80.9297 101.364C80.8796 101.575 80.8545 101.804 80.8545 102.051Z" fill="white"/>
</svg>
