<svg width="208" height="208" viewBox="0 0 208 208" fill="none" xmlns="http://www.w3.org/2000/svg">
<rect width="208" height="208" rx="12" fill="#B1B66F"/>
<path d="M146.886 74.1272V42.9561ZM141.091 84.5176C141.091 86.0588 141.499 87.5655 142.263 88.847C143.027 90.1285 144.113 91.1274 145.384 91.7172C146.655 92.307 148.053 92.4613 149.402 92.1606C150.751 91.8599 151.99 91.1177 152.963 90.0279C153.936 88.9381 154.598 87.5495 154.866 86.0379C155.135 84.5262 154.997 82.9593 154.471 81.5354C153.944 80.1115 153.053 78.8944 151.909 78.0381C150.766 77.1818 149.421 76.7248 148.045 76.7248L146.886 75.426V71.5296M94.7273 146.86C84.4809 146.86 76.1818 136.392 76.1818 123.481C76.1818 110.571 84.4809 100.103 94.7273 100.103H98.4364C110.115 100.103 117.909 97.5055 127.182 87.1152V85.8164C117.909 84.5176 113.273 81.92 113.273 81.92V80.6212C113.273 80.6212 120.227 74.1272 128.341 71.5296V70.2308C121.266 59.7002 110.496 53.3464 98.4364 53.3464H94.7273C90.0474 53.3424 85.4003 54.2205 80.9805 55.944M94.7273 146.86C83.6605 146.86 73.047 141.934 65.2216 133.165C57.3963 124.397 53 112.504 53 100.103M94.7273 146.86C99.7253 136.828 109.068 128.677 119.764 128.677V129.975C119.764 129.975 110.955 136.469 110.955 146.86C110.955 157.25 119.764 163.744 119.764 163.744V165.043C109.068 165.043 99.7253 156.892 94.7273 146.86ZM53 100.103C53 63.7368 59.9545 48.1512 59.9545 48.1512H62.2727C62.2727 48.1512 70.7341 55.944 80.8182 55.944H80.9805M53 100.103C52.9977 90.3991 55.69 80.9346 60.7036 73.0221C65.7172 65.1095 72.8037 59.141 80.9805 55.944M104 74.1272V63.7368Z" fill="#B1B66F"/>
<path d="M146.886 74.1272V42.9561M141.091 84.5176C141.091 86.0588 141.499 87.5655 142.263 88.847C143.027 90.1285 144.113 91.1274 145.384 91.7172C146.655 92.307 148.053 92.4613 149.402 92.1606C150.751 91.8599 151.99 91.1177 152.963 90.0279C153.936 88.9381 154.598 87.5495 154.866 86.0379C155.135 84.5262 154.997 82.9593 154.471 81.5354C153.944 80.1115 153.053 78.8944 151.909 78.0381C150.766 77.1818 149.421 76.7248 148.045 76.7248L146.886 75.426V71.5296M94.7273 146.86C84.4809 146.86 76.1818 136.392 76.1818 123.481C76.1818 110.571 84.4809 100.103 94.7273 100.103H98.4364C110.115 100.103 117.909 97.5055 127.182 87.1152V85.8164C117.909 84.5176 113.273 81.92 113.273 81.92V80.6212C113.273 80.6212 120.227 74.1272 128.341 71.5296V70.2308C121.266 59.7002 110.496 53.3464 98.4364 53.3464H94.7273C90.0474 53.3424 85.4003 54.2205 80.9805 55.944M94.7273 146.86C83.6605 146.86 73.047 141.934 65.2216 133.165C57.3963 124.397 53 112.504 53 100.103M94.7273 146.86C99.7253 136.828 109.068 128.677 119.764 128.677V129.975C119.764 129.975 110.955 136.469 110.955 146.86C110.955 157.25 119.764 163.744 119.764 163.744V165.043C109.068 165.043 99.7253 156.892 94.7273 146.86ZM80.9805 55.944H80.8182C70.7341 55.944 62.2727 48.1512 62.2727 48.1512H59.9545C59.9545 48.1512 53 63.7368 53 100.103M80.9805 55.944C72.8037 59.141 65.7172 65.1095 60.7036 73.0221C55.69 80.9346 52.9977 90.3991 53 100.103M104 74.1272V63.7368" stroke="white" stroke-width="6"/>
</svg>
